<?xml version="1.0" encoding="UTF-8" standalone="no"?>
<svg
   xmlns:dc="http://purl.org/dc/elements/1.1/"
   xmlns:cc="http://creativecommons.org/ns#"
   xmlns:rdf="http://www.w3.org/1999/02/22-rdf-syntax-ns#"
   xmlns:svg="http://www.w3.org/2000/svg"
   xmlns="http://www.w3.org/2000/svg"
   viewBox="0 0 1474.6667 529.33331"
   height="529.33331"
   width="1474.6667"
   xml:space="preserve"
   id="svg2"
   version="1.1"><metadata
     id="metadata8"><rdf:RDF><cc:Work
         rdf:about=""><dc:format>image/svg+xml</dc:format><dc:type
           rdf:resource="http://purl.org/dc/dcmitype/StillImage" /></cc:Work></rdf:RDF></metadata><defs
     id="defs6"><linearGradient
       id="linearGradient28"
       spreadMethod="pad"
       gradientTransform="matrix(2.835897,0,0,2.835714,544.6059,363.46485)"
       gradientUnits="userSpaceOnUse"
       y2="6.266171"
       x2="-125.90465"
       y1="-122.10136"
       x1="-125.28931"><stop
         id="stop24"
         offset="0"
         style="stop-opacity:1;stop-color:#51a7e0" /><stop
         id="stop26"
         offset="1"
         style="stop-opacity:1;stop-color:#3473b2" /></linearGradient><linearGradient
       id="linearGradient46"
       spreadMethod="pad"
       gradientTransform="matrix(2.835897,0,0,2.835714,544.6059,363.46485)"
       gradientUnits="userSpaceOnUse"
       y2="6.266171"
       x2="-125.90465"
       y1="-122.10136"
       x1="-125.28931"><stop
         id="stop42"
         offset="0"
         style="stop-opacity:1;stop-color:#51a7e0" /><stop
         id="stop44"
         offset="1"
         style="stop-opacity:1;stop-color:#3473b2" /></linearGradient><linearGradient
       id="linearGradient64"
       spreadMethod="pad"
       gradientTransform="matrix(2.835897,0,0,2.835714,544.6059,363.46485)"
       gradientUnits="userSpaceOnUse"
       y2="6.266171"
       x2="-125.90465"
       y1="-122.10136"
       x1="-125.28931"><stop
         id="stop60"
         offset="0"
         style="stop-opacity:1;stop-color:#51a7e0" /><stop
         id="stop62"
         offset="1"
         style="stop-opacity:1;stop-color:#3473b2" /></linearGradient><linearGradient
       id="linearGradient82"
       spreadMethod="pad"
       gradientTransform="matrix(0,2.835714,-2.835897,0,544.6059,363.46485)"
       gradientUnits="userSpaceOnUse"
       y2="126.13744"
       x2="5.2334118"
       y1="126.13745"
       x1="-120.85647"><stop
         id="stop78"
         offset="0"
         style="stop-opacity:1;stop-color:#51a7e0" /><stop
         id="stop80"
         offset="1"
         style="stop-opacity:1;stop-color:#3473b2" /></linearGradient><linearGradient
       id="linearGradient100"
       spreadMethod="pad"
       gradientTransform="matrix(2.005282,2.005153,-2.005282,2.005153,544.60592,363.46485)"
       gradientUnits="userSpaceOnUse"
       y2="92.072784"
       x2="-85.548111"
       y1="3.2781739"
       x1="-174.9187"><stop
         id="stop96"
         offset="0"
         style="stop-opacity:1;stop-color:#51a7e0" /><stop
         id="stop98"
         offset="1"
         style="stop-opacity:1;stop-color:#3473b2" /></linearGradient><linearGradient
       id="linearGradient118"
       spreadMethod="pad"
       gradientTransform="matrix(-2.005282,2.005153,-2.005282,-2.005153,544.60592,363.46485)"
       gradientUnits="userSpaceOnUse"
       y2="86.195618"
       x2="93.248322"
       y1="174.36899"
       x1="3.48592"><stop
         id="stop114"
         offset="0"
         style="stop-opacity:1;stop-color:#51a7e0" /><stop
         id="stop116"
         offset="1"
         style="stop-opacity:1;stop-color:#3473b2" /></linearGradient><linearGradient
       id="linearGradient136"
       spreadMethod="pad"
       gradientTransform="matrix(0,2.835714,-2.835897,0,544.6059,363.46485)"
       gradientUnits="userSpaceOnUse"
       y2="126.13744"
       x2="5.2334118"
       y1="126.13745"
       x1="-120.85647"><stop
         id="stop132"
         offset="0"
         style="stop-opacity:1;stop-color:#51a7e0" /><stop
         id="stop134"
         offset="1"
         style="stop-opacity:1;stop-color:#3473b2" /></linearGradient><linearGradient
       id="linearGradient154"
       spreadMethod="pad"
       gradientTransform="matrix(0,2.835714,-2.835897,0,544.6059,363.46485)"
       gradientUnits="userSpaceOnUse"
       y2="126.13744"
       x2="5.2334118"
       y1="126.13745"
       x1="-120.85647"><stop
         id="stop150"
         offset="0"
         style="stop-opacity:1;stop-color:#51a7e0" /><stop
         id="stop152"
         offset="1"
         style="stop-opacity:1;stop-color:#3473b2" /></linearGradient><linearGradient
       id="linearGradient172"
       spreadMethod="pad"
       gradientTransform="matrix(2.835897,0,0,2.835714,544.6059,363.46485)"
       gradientUnits="userSpaceOnUse"
       y2="6.266171"
       x2="-125.90465"
       y1="-122.10136"
       x1="-125.28931"><stop
         id="stop168"
         offset="0"
         style="stop-opacity:1;stop-color:#51a7e0" /><stop
         id="stop170"
         offset="1"
         style="stop-opacity:1;stop-color:#3473b2" /></linearGradient><linearGradient
       id="linearGradient190"
       spreadMethod="pad"
       gradientTransform="matrix(2.835897,0,0,2.835714,544.6059,363.46485)"
       gradientUnits="userSpaceOnUse"
       y2="6.266171"
       x2="-125.90465"
       y1="-122.10136"
       x1="-125.28931"><stop
         id="stop186"
         offset="0"
         style="stop-opacity:1;stop-color:#51a7e0" /><stop
         id="stop188"
         offset="1"
         style="stop-opacity:1;stop-color:#3473b2" /></linearGradient><linearGradient
       id="linearGradient208"
       spreadMethod="pad"
       gradientTransform="matrix(2.835897,0,0,2.835714,544.6059,363.46485)"
       gradientUnits="userSpaceOnUse"
       y2="6.266171"
       x2="-125.90465"
       y1="-122.10136"
       x1="-125.28931"><stop
         id="stop204"
         offset="0"
         style="stop-opacity:1;stop-color:#51a7e0" /><stop
         id="stop206"
         offset="1"
         style="stop-opacity:1;stop-color:#3473b2" /></linearGradient><linearGradient
       id="linearGradient226"
       spreadMethod="pad"
       gradientTransform="matrix(2.835897,0,0,2.835714,544.6059,363.46485)"
       gradientUnits="userSpaceOnUse"
       y2="6.266171"
       x2="-125.90465"
       y1="-122.10136"
       x1="-125.28931"><stop
         id="stop222"
         offset="0"
         style="stop-opacity:1;stop-color:#51a7e0" /><stop
         id="stop224"
         offset="1"
         style="stop-opacity:1;stop-color:#3473b2" /></linearGradient><linearGradient
       id="linearGradient244"
       spreadMethod="pad"
       gradientTransform="matrix(2.835897,0,0,2.835714,544.6059,363.46485)"
       gradientUnits="userSpaceOnUse"
       y2="6.266171"
       x2="-125.90465"
       y1="-122.10136"
       x1="-125.28931"><stop
         id="stop240"
         offset="0"
         style="stop-opacity:1;stop-color:#51a7e0" /><stop
         id="stop242"
         offset="1"
         style="stop-opacity:1;stop-color:#3473b2" /></linearGradient><linearGradient
       id="linearGradient262"
       spreadMethod="pad"
       gradientTransform="matrix(2.835897,0,0,2.835714,544.6059,363.46485)"
       gradientUnits="userSpaceOnUse"
       y2="6.266171"
       x2="-125.90465"
       y1="-122.10136"
       x1="-125.28931"><stop
         id="stop258"
         offset="0"
         style="stop-opacity:1;stop-color:#51a7e0" /><stop
         id="stop260"
         offset="1"
         style="stop-opacity:1;stop-color:#3473b2" /></linearGradient><linearGradient
       id="linearGradient280"
       spreadMethod="pad"
       gradientTransform="matrix(2.835897,0,0,2.835714,544.6059,363.46485)"
       gradientUnits="userSpaceOnUse"
       y2="6.266171"
       x2="-125.90465"
       y1="-122.10136"
       x1="-125.28931"><stop
         id="stop276"
         offset="0"
         style="stop-opacity:1;stop-color:#51a7e0" /><stop
         id="stop278"
         offset="1"
         style="stop-opacity:1;stop-color:#3473b2" /></linearGradient><linearGradient
       id="linearGradient298"
       spreadMethod="pad"
       gradientTransform="matrix(2.835897,0,0,2.835714,544.6059,363.46485)"
       gradientUnits="userSpaceOnUse"
       y2="6.266171"
       x2="-125.90465"
       y1="-122.10136"
       x1="-125.28931"><stop
         id="stop294"
         offset="0"
         style="stop-opacity:1;stop-color:#51a7e0" /><stop
         id="stop296"
         offset="1"
         style="stop-opacity:1;stop-color:#3473b2" /></linearGradient><clipPath
       id="clipPath308"
       clipPathUnits="userSpaceOnUse"><path
         id="path306"
         d="m 335.234,198.027 c 0,16.196 -13.129,29.325 -29.328,29.325 -16.195,0 -29.324,-13.129 -29.324,-29.325 0,-16.195 13.129,-29.324 29.324,-29.324 16.199,0 29.328,13.129 29.328,29.324 z" /></clipPath><clipPath
       id="clipPath316"
       clipPathUnits="userSpaceOnUse"><path
         id="path314"
         d="m 79.321061,-99.831082 h 25.299129 v 25.300763 H 79.321061 Z" /></clipPath><radialGradient
       id="radialGradient322"
       spreadMethod="pad"
       gradientUnits="userSpaceOnUse"
       r="12.365252"
       cy="-87.168533"
       cx="91.931824"
       fy="-87.168533"
       fx="91.931824"><stop
         id="stop318"
         offset="0"
         style="stop-opacity:1;stop-color:#ffffff" /><stop
         id="stop320"
         offset="1"
         style="stop-opacity:0;stop-color:#ffffff" /></radialGradient><mask
       id="mask324"
       height="1"
       width="1"
       y="0"
       x="0"
       maskUnits="userSpaceOnUse"><g
         id="g330"><g
           id="g328"
           clip-path="url(#clipPath316)"><path
             id="path326"
             style="fill:url(#radialGradient322);stroke:none"
             d="m 79.321061,-99.831082 h 25.299129 v 25.300763 H 79.321061 Z" /></g></g></mask><radialGradient
       id="radialGradient338"
       spreadMethod="pad"
       gradientUnits="userSpaceOnUse"
       r="12.365252"
       cy="-87.168533"
       cx="91.931824"
       fy="-87.168533"
       fx="91.931824"><stop
         id="stop334"
         offset="0"
         style="stop-opacity:1;stop-color:#000000" /><stop
         id="stop336"
         offset="1"
         style="stop-opacity:1;stop-color:#000000" /></radialGradient><clipPath
       id="clipPath348"
       clipPathUnits="userSpaceOnUse"><path
         id="path346"
         d="m 94.473,197.562 c 0,16.196 -13.129,29.325 -29.328,29.325 -16.196,0 -29.325,-13.129 -29.325,-29.325 0,-16.195 13.129,-29.324 29.325,-29.324 16.199,0 29.328,13.129 29.328,29.324 z" /></clipPath><clipPath
       id="clipPath356"
       clipPathUnits="userSpaceOnUse"><path
         id="path354"
         d="m 79.220642,-99.635041 h 25.299128 v 24.879084 H 79.220642 Z" /></clipPath><radialGradient
       id="radialGradient362"
       spreadMethod="pad"
       gradientUnits="userSpaceOnUse"
       r="12.365252"
       cy="-87.168533"
       cx="91.931824"
       fy="-87.168533"
       fx="91.931824"><stop
         id="stop358"
         offset="0"
         style="stop-opacity:1;stop-color:#ffffff" /><stop
         id="stop360"
         offset="1"
         style="stop-opacity:0;stop-color:#ffffff" /></radialGradient><mask
       id="mask364"
       height="1"
       width="1"
       y="0"
       x="0"
       maskUnits="userSpaceOnUse"><g
         id="g370"><g
           id="g368"
           clip-path="url(#clipPath356)"><path
             id="path366"
             style="fill:url(#radialGradient362);stroke:none"
             d="m 79.220642,-99.635041 h 25.299128 v 24.879084 H 79.220642 Z" /></g></g></mask><radialGradient
       id="radialGradient378"
       spreadMethod="pad"
       gradientUnits="userSpaceOnUse"
       r="12.365252"
       cy="-87.168533"
       cx="91.931824"
       fy="-87.168533"
       fx="91.931824"><stop
         id="stop374"
         offset="0"
         style="stop-opacity:1;stop-color:#000000" /><stop
         id="stop376"
         offset="1"
         style="stop-opacity:1;stop-color:#000000" /></radialGradient><clipPath
       id="clipPath388"
       clipPathUnits="userSpaceOnUse"><path
         id="path386"
         d="m 215.543,70.277 c 0,16.196 -13.133,29.321 -29.328,29.321 -16.195,0 -29.324,-13.125 -29.324,-29.321 0,-16.195 13.129,-29.324 29.324,-29.324 16.195,0 29.328,13.129 29.328,29.324 z" /></clipPath><clipPath
       id="clipPath396"
       clipPathUnits="userSpaceOnUse"><path
         id="path394"
         d="m 79.191326,-99.93519 h 25.299134 v 25.300763 H 79.191326 Z" /></clipPath><radialGradient
       id="radialGradient402"
       spreadMethod="pad"
       gradientUnits="userSpaceOnUse"
       r="12.365252"
       cy="-87.168533"
       cx="91.931824"
       fy="-87.168533"
       fx="91.931824"><stop
         id="stop398"
         offset="0"
         style="stop-opacity:1;stop-color:#ffffff" /><stop
         id="stop400"
         offset="1"
         style="stop-opacity:0;stop-color:#ffffff" /></radialGradient><mask
       id="mask404"
       height="1"
       width="1"
       y="0"
       x="0"
       maskUnits="userSpaceOnUse"><g
         id="g410"><g
           id="g408"
           clip-path="url(#clipPath396)"><path
             id="path406"
             style="fill:url(#radialGradient402);stroke:none"
             d="m 79.191326,-99.93519 h 25.299134 v 25.300763 H 79.191326 Z" /></g></g></mask><radialGradient
       id="radialGradient418"
       spreadMethod="pad"
       gradientUnits="userSpaceOnUse"
       r="12.365252"
       cy="-87.168533"
       cx="91.931824"
       fy="-87.168533"
       fx="91.931824"><stop
         id="stop414"
         offset="0"
         style="stop-opacity:1;stop-color:#000000" /><stop
         id="stop416"
         offset="1"
         style="stop-opacity:1;stop-color:#000000" /></radialGradient><clipPath
       id="clipPath428"
       clipPathUnits="userSpaceOnUse"><path
         id="path426"
         d="m 215.625,326.52 c 0,16.195 -13.129,29.324 -29.324,29.324 -16.196,0 -29.324,-13.129 -29.324,-29.324 0,-16.196 13.128,-29.325 29.324,-29.325 16.195,0 29.324,13.129 29.324,29.325 z" /></clipPath><clipPath
       id="clipPath436"
       clipPathUnits="userSpaceOnUse"><path
         id="path434"
         d="m 79.155447,-99.616282 h 25.299133 v 24.879084 H 79.155447 Z" /></clipPath><radialGradient
       id="radialGradient442"
       spreadMethod="pad"
       gradientUnits="userSpaceOnUse"
       r="12.365252"
       cy="-87.168533"
       cx="91.931824"
       fy="-87.168533"
       fx="91.931824"><stop
         id="stop438"
         offset="0"
         style="stop-opacity:1;stop-color:#ffffff" /><stop
         id="stop440"
         offset="1"
         style="stop-opacity:0;stop-color:#ffffff" /></radialGradient><mask
       id="mask444"
       height="1"
       width="1"
       y="0"
       x="0"
       maskUnits="userSpaceOnUse"><g
         id="g450"><g
           id="g448"
           clip-path="url(#clipPath436)"><path
             id="path446"
             style="fill:url(#radialGradient442);stroke:none"
             d="m 79.155447,-99.616282 h 25.299133 v 24.879084 H 79.155447 Z" /></g></g></mask><radialGradient
       id="radialGradient458"
       spreadMethod="pad"
       gradientUnits="userSpaceOnUse"
       r="12.365252"
       cy="-87.168533"
       cx="91.931824"
       fy="-87.168533"
       fx="91.931824"><stop
         id="stop454"
         offset="0"
         style="stop-opacity:1;stop-color:#000000" /><stop
         id="stop456"
         offset="1"
         style="stop-opacity:1;stop-color:#000000" /></radialGradient><clipPath
       id="clipPath468"
       clipPathUnits="userSpaceOnUse"><path
         id="path466"
         d="M 176.918,66.852 192.719,82.648 83.652,191.711 67.852,175.91 Z" /></clipPath><clipPath
       id="clipPath476"
       clipPathUnits="userSpaceOnUse"><path
         id="path474"
         d="m 24.851594,-165.54927 h 19.887193 v 69.669873 H 24.851594 Z" /></clipPath><linearGradient
       id="linearGradient484"
       spreadMethod="pad"
       gradientUnits="userSpaceOnUse"
       y2="-130.71571"
       x2="33.593098"
       y1="-130.71571"
       x1="36.086567"><stop
         id="stop478"
         offset="0"
         style="stop-opacity:0;stop-color:#ffffff" /><stop
         id="stop480"
         offset="0.5"
         style="stop-opacity:0.2;stop-color:#ffffff" /><stop
         id="stop482"
         offset="1"
         style="stop-opacity:0;stop-color:#ffffff" /></linearGradient><mask
       id="mask486"
       height="1"
       width="1"
       y="0"
       x="0"
       maskUnits="userSpaceOnUse"><g
         id="g492"><g
           id="g490"
           clip-path="url(#clipPath476)"><path
             id="path488"
             style="fill:url(#linearGradient484);stroke:none"
             d="m 24.851594,-165.54927 h 19.887193 v 69.669873 H 24.851594 Z" /></g></g></mask><linearGradient
       id="linearGradient502"
       spreadMethod="pad"
       gradientUnits="userSpaceOnUse"
       y2="-130.71571"
       x2="33.593098"
       y1="-130.71571"
       x1="36.086567"><stop
         id="stop496"
         offset="0"
         style="stop-opacity:1;stop-color:#000000" /><stop
         id="stop498"
         offset="0.5"
         style="stop-opacity:1;stop-color:#000000" /><stop
         id="stop500"
         offset="1"
         style="stop-opacity:1;stop-color:#000000" /></linearGradient><clipPath
       id="clipPath512"
       clipPathUnits="userSpaceOnUse"><path
         id="path510"
         d="M 202.676,73.883 186.879,89.68 295.945,198.738 311.742,182.941 Z" /></clipPath><clipPath
       id="clipPath520"
       clipPathUnits="userSpaceOnUse"><path
         id="path518"
         d="M 24.89617,-165.72248 H 44.783363 V -96.0526 H 24.89617 Z" /></clipPath><linearGradient
       id="linearGradient528"
       spreadMethod="pad"
       gradientUnits="userSpaceOnUse"
       y2="-130.71571"
       x2="33.593098"
       y1="-130.71571"
       x1="36.086567"><stop
         id="stop522"
         offset="0"
         style="stop-opacity:0;stop-color:#ffffff" /><stop
         id="stop524"
         offset="0.5"
         style="stop-opacity:0.20123598;stop-color:#ffffff" /><stop
         id="stop526"
         offset="1"
         style="stop-opacity:0;stop-color:#ffffff" /></linearGradient><mask
       id="mask530"
       height="1"
       width="1"
       y="0"
       x="0"
       maskUnits="userSpaceOnUse"><g
         id="g536"><g
           id="g534"
           clip-path="url(#clipPath520)"><path
             id="path532"
             style="fill:url(#linearGradient528);stroke:none"
             d="M 24.89617,-165.72248 H 44.783363 V -96.0526 H 24.89617 Z" /></g></g></mask><linearGradient
       id="linearGradient546"
       spreadMethod="pad"
       gradientUnits="userSpaceOnUse"
       y2="-130.71571"
       x2="33.593098"
       y1="-130.71571"
       x1="36.086567"><stop
         id="stop540"
         offset="0"
         style="stop-opacity:1;stop-color:#000000" /><stop
         id="stop542"
         offset="0.5"
         style="stop-opacity:1;stop-color:#000000" /><stop
         id="stop544"
         offset="1"
         style="stop-opacity:1;stop-color:#000000" /></linearGradient><clipPath
       id="clipPath556"
       clipPathUnits="userSpaceOnUse"><path
         id="path554"
         d="M 77.527,199.586 61.73,215.383 170.797,324.441 186.598,308.645 Z" /></clipPath><clipPath
       id="clipPath564"
       clipPathUnits="userSpaceOnUse"><path
         id="path562"
         d="m 24.908049,-165.59963 h 19.887193 v 69.669881 H 24.908049 Z" /></clipPath><linearGradient
       id="linearGradient572"
       spreadMethod="pad"
       gradientUnits="userSpaceOnUse"
       y2="-130.71571"
       x2="33.593098"
       y1="-130.71571"
       x1="36.086567"><stop
         id="stop566"
         offset="0"
         style="stop-opacity:0;stop-color:#ffffff" /><stop
         id="stop568"
         offset="0.5"
         style="stop-opacity:0.2;stop-color:#ffffff" /><stop
         id="stop570"
         offset="1"
         style="stop-opacity:0;stop-color:#ffffff" /></linearGradient><mask
       id="mask574"
       height="1"
       width="1"
       y="0"
       x="0"
       maskUnits="userSpaceOnUse"><g
         id="g580"><g
           id="g578"
           clip-path="url(#clipPath564)"><path
             id="path576"
             style="fill:url(#linearGradient572);stroke:none"
             d="m 24.908049,-165.59963 h 19.887193 v 69.669881 H 24.908049 Z" /></g></g></mask><linearGradient
       id="linearGradient590"
       spreadMethod="pad"
       gradientUnits="userSpaceOnUse"
       y2="-130.71571"
       x2="33.593098"
       y1="-130.71571"
       x1="36.086567"><stop
         id="stop584"
         offset="0"
         style="stop-opacity:1;stop-color:#000000" /><stop
         id="stop586"
         offset="0.5"
         style="stop-opacity:1;stop-color:#000000" /><stop
         id="stop588"
         offset="1"
         style="stop-opacity:1;stop-color:#000000" /></linearGradient><clipPath
       id="clipPath602"
       clipPathUnits="userSpaceOnUse"><path
         id="path600"
         d="m 295.117,200.422 15.797,15.797 -109.066,109.062 -15.797,-15.797 z" /></clipPath><clipPath
       id="clipPath610"
       clipPathUnits="userSpaceOnUse"><path
         id="path608"
         d="m 24.948866,-165.37645 h 19.808278 v 69.393414 H 24.948866 Z" /></clipPath><linearGradient
       id="linearGradient618"
       spreadMethod="pad"
       gradientUnits="userSpaceOnUse"
       y2="-130.71571"
       x2="33.593098"
       y1="-130.71571"
       x1="36.086567"><stop
         id="stop612"
         offset="0"
         style="stop-opacity:0;stop-color:#ffffff" /><stop
         id="stop614"
         offset="0.5"
         style="stop-opacity:0.2;stop-color:#ffffff" /><stop
         id="stop616"
         offset="1"
         style="stop-opacity:0;stop-color:#ffffff" /></linearGradient><mask
       id="mask620"
       height="1"
       width="1"
       y="0"
       x="0"
       maskUnits="userSpaceOnUse"><g
         id="g626"><g
           id="g624"
           clip-path="url(#clipPath610)"><path
             id="path622"
             style="fill:url(#linearGradient618);stroke:none"
             d="m 24.948866,-165.37645 h 19.808278 v 69.393414 H 24.948866 Z" /></g></g></mask><linearGradient
       id="linearGradient636"
       spreadMethod="pad"
       gradientUnits="userSpaceOnUse"
       y2="-130.71571"
       x2="33.593098"
       y1="-130.71571"
       x1="36.086567"><stop
         id="stop630"
         offset="0"
         style="stop-opacity:1;stop-color:#000000" /><stop
         id="stop632"
         offset="0.5"
         style="stop-opacity:1;stop-color:#000000" /><stop
         id="stop634"
         offset="1"
         style="stop-opacity:1;stop-color:#000000" /></linearGradient><clipPath
       id="clipPath660"
       clipPathUnits="userSpaceOnUse"><path
         id="path658"
         d="m 221.699,197.961 c 0,19.367 -15.699,35.062 -35.066,35.062 -19.367,0 -35.067,-15.695 -35.067,-35.062 0,-19.367 15.7,-35.066 35.067,-35.066 19.367,0 35.066,15.699 35.066,35.066 z" /></clipPath><clipPath
       id="clipPath668"
       clipPathUnits="userSpaceOnUse"><path
         id="path666"
         d="m 79.366667,-99.849915 h 25.036163 v 25.390429 H 79.366667 Z" /></clipPath><radialGradient
       id="radialGradient676"
       spreadMethod="pad"
       gradientUnits="userSpaceOnUse"
       r="12.365252"
       cy="-87.168533"
       cx="91.931824"
       fy="-87.168533"
       fx="91.931824"><stop
         id="stop670"
         offset="0"
         style="stop-opacity:1;stop-color:#ffffff" /><stop
         id="stop672"
         offset="0.224311"
         style="stop-opacity:0.50196078;stop-color:#ffffff" /><stop
         id="stop674"
         offset="1"
         style="stop-opacity:0;stop-color:#ffffff" /></radialGradient><mask
       id="mask678"
       height="1"
       width="1"
       y="0"
       x="0"
       maskUnits="userSpaceOnUse"><g
         id="g684"><g
           id="g682"
           clip-path="url(#clipPath668)"><path
             id="path680"
             style="fill:url(#radialGradient676);stroke:none"
             d="m 79.366667,-99.849915 h 25.036163 v 25.390429 H 79.366667 Z" /></g></g></mask><radialGradient
       id="radialGradient694"
       spreadMethod="pad"
       gradientUnits="userSpaceOnUse"
       r="12.365252"
       cy="-87.168533"
       cx="91.931824"
       fy="-87.168533"
       fx="91.931824"><stop
         id="stop688"
         offset="0"
         style="stop-opacity:1;stop-color:#000000" /><stop
         id="stop690"
         offset="0.224311"
         style="stop-opacity:1;stop-color:#000000" /><stop
         id="stop692"
         offset="1"
         style="stop-opacity:1;stop-color:#000000" /></radialGradient><clipPath
       id="clipPath710"
       clipPathUnits="userSpaceOnUse"><path
         id="path708"
         d="m 209.613,197.945 c 0,12.727 -10.312,23.039 -23.039,23.039 -12.722,0 -23.039,-10.312 -23.039,-23.039 0,-12.722 10.317,-23.039 23.039,-23.039 12.727,0 23.039,10.317 23.039,23.039 z" /></clipPath><clipPath
       id="clipPath718"
       clipPathUnits="userSpaceOnUse"><path
         id="path716"
         d="M 79.279544,-100.0209 H 104.5036 v 25.225686 H 79.279544 Z" /></clipPath><radialGradient
       id="radialGradient724"
       spreadMethod="pad"
       gradientUnits="userSpaceOnUse"
       r="12.365252"
       cy="-87.168533"
       cx="91.931824"
       fy="-87.168533"
       fx="91.931824"><stop
         id="stop720"
         offset="0"
         style="stop-opacity:1;stop-color:#ffffff" /><stop
         id="stop722"
         offset="1"
         style="stop-opacity:0;stop-color:#ffffff" /></radialGradient><mask
       id="mask726"
       height="1"
       width="1"
       y="0"
       x="0"
       maskUnits="userSpaceOnUse"><g
         id="g732"><g
           id="g730"
           clip-path="url(#clipPath718)"><path
             id="path728"
             style="fill:url(#radialGradient724);stroke:none"
             d="M 79.279544,-100.0209 H 104.5036 v 25.225686 H 79.279544 Z" /></g></g></mask><radialGradient
       id="radialGradient740"
       spreadMethod="pad"
       gradientUnits="userSpaceOnUse"
       r="12.365252"
       cy="-87.168533"
       cx="91.931824"
       fy="-87.168533"
       fx="91.931824"><stop
         id="stop736"
         offset="0"
         style="stop-opacity:1;stop-color:#000000" /><stop
         id="stop738"
         offset="1"
         style="stop-opacity:1;stop-color:#000000" /></radialGradient><linearGradient
       id="linearGradient758"
       spreadMethod="pad"
       gradientTransform="matrix(2.835897,0,0,2.835714,544.6059,363.46484)"
       gradientUnits="userSpaceOnUse"
       y2="6.266171"
       x2="-125.90465"
       y1="-122.10136"
       x1="-125.28931"><stop
         id="stop754"
         offset="0"
         style="stop-opacity:1;stop-color:#51a7e0" /><stop
         id="stop756"
         offset="1"
         style="stop-opacity:1;stop-color:#3473b2" /></linearGradient></defs><g
     transform="matrix(1.3333333,0,0,1.3333333,0,9.9e-6)"
     id="g10"><g
       id="g12"><g
         id="g14"><g
           id="g16"><g
             id="g22"><path
               id="path30"
               style="fill:url(#linearGradient28);stroke:none"
               d="m 69.262,92.941 h 7.07 v 214.742 h -7.07 z" /></g></g></g><g
         id="g32"><g
           id="g34"><g
             id="g40"><path
               id="path48"
               style="fill:url(#linearGradient46);stroke:none"
               d="m 296.746,92.086 h 7.07 v 214.742 h -7.07 z" /></g></g></g><g
         id="g50"><g
           id="g52"><g
             id="g58"><path
               id="path66"
               style="fill:url(#linearGradient64);stroke:none"
               d="m 183.594,84.082 h 7.074 v 214.742 h -7.074 z" /></g></g></g><g
         id="g68"><g
           id="g70"><g
             id="g76"><path
               id="path84"
               style="fill:url(#linearGradient82);stroke:none"
               d="m 77.758,194.301 h 214.758 v 7.074 H 77.758 Z" /></g></g></g><g
         id="g86"><g
           id="g88"><g
             id="g94"><path
               id="path102"
               style="fill:url(#linearGradient100);stroke:none"
               d="m 304.348,76.477 5,5 -236.118,236.101 -5,-5 z" /></g></g></g><g
         id="g104"><g
           id="g106"><g
             id="g112"><path
               id="path120"
               style="fill:url(#linearGradient118);stroke:none"
               d="m 305.52,312.445 -5,5 -236.118,-236.101 5,-5 z" /></g></g></g><g
         id="g122"><g
           id="g124"><g
             id="g130"><path
               id="path138"
               style="fill:url(#linearGradient136);stroke:none"
               d="M 74.566,80.027 H 289.32 v 7.07 H 74.566 Z" /></g></g></g><g
         id="g140"><g
           id="g142"><g
             id="g148"><path
               id="path156"
               style="fill:url(#linearGradient154);stroke:none"
               d="m 83.184,310.703 h 214.754 v 7.07 H 83.184 Z" /></g></g></g><g
         id="g158"><g
           id="g160"><g
             id="g166"><path
               id="path174"
               style="fill:url(#linearGradient172);stroke:none"
               d="m 240.543,71.992 c 0,29.649 -24.039,53.684 -53.688,53.684 -29.652,0 -53.691,-24.035 -53.691,-53.684 0,-29.648 24.039,-53.687 53.691,-53.687 29.649,0 53.688,24.039 53.688,53.687 z" /></g></g></g><g
         id="g176"><g
           id="g178"><g
             id="g184"><path
               id="path192"
               style="fill:url(#linearGradient190);stroke:none"
               d="m 359.883,198.246 c 0,29.652 -24.039,53.688 -53.692,53.688 -29.648,0 -53.687,-24.036 -53.687,-53.688 0,-29.648 24.039,-53.684 53.687,-53.684 29.653,0 53.692,24.036 53.692,53.684 z" /></g></g></g><g
         id="g194"><g
           id="g196"><g
             id="g202"><path
               id="path210"
               style="fill:url(#linearGradient208);stroke:none"
               d="m 120.68,197.734 c 0,29.649 -24.035,53.684 -53.688,53.684 -29.652,0 -53.687,-24.035 -53.687,-53.684 0,-29.648 24.035,-53.687 53.687,-53.687 29.653,0 53.688,24.039 53.688,53.687 z" /></g></g></g><g
         id="g212"><g
           id="g214"><g
             id="g220"><path
               id="path228"
               style="fill:url(#linearGradient226);stroke:none"
               d="m 239.988,325.938 c 0,29.652 -24.035,53.687 -53.687,53.687 -29.653,0 -53.688,-24.035 -53.688,-53.687 0,-29.649 24.035,-53.684 53.688,-53.684 29.652,0 53.687,24.035 53.687,53.684 z" /></g></g></g><g
         id="g230"><g
           id="g232"><g
             id="g238"><path
               id="path246"
               style="fill:url(#linearGradient244);stroke:none"
               d="m 322.254,311.352 c 0,13.449 -10.902,24.355 -24.356,24.355 -13.453,0 -24.355,-10.906 -24.355,-24.355 0,-13.454 10.902,-24.356 24.355,-24.356 13.454,0 24.356,10.902 24.356,24.356 z" /></g></g></g><g
         id="g248"><g
           id="g250"><g
             id="g256"><path
               id="path264"
               style="fill:url(#linearGradient262);stroke:none"
               d="m 322.727,86.457 c 0,13.449 -10.907,24.355 -24.36,24.355 -13.449,0 -24.355,-10.906 -24.355,-24.355 0,-13.453 10.906,-24.355 24.355,-24.355 13.453,0 24.36,10.902 24.36,24.355 z" /></g></g></g><g
         id="g266"><g
           id="g268"><g
             id="g274"><path
               id="path282"
               style="fill:url(#linearGradient280);stroke:none"
               d="m 99.871,86.109 c 0,13.45 -10.902,24.352 -24.355,24.352 -13.454,0 -24.356,-10.902 -24.356,-24.352 0,-13.453 10.902,-24.355 24.356,-24.355 13.453,0 24.355,10.902 24.355,24.355 z" /></g></g></g><g
         id="g284"><g
           id="g286"><g
             id="g292"><path
               id="path300"
               style="fill:url(#linearGradient298);stroke:none"
               d="m 100.02,310.879 c 0,13.449 -10.907,24.355 -24.356,24.355 -13.453,0 -24.359,-10.906 -24.359,-24.355 0,-13.453 10.906,-24.356 24.359,-24.356 13.449,0 24.356,10.903 24.356,24.356 z" /></g></g></g><g
         id="g302"><g
           clip-path="url(#clipPath308)"
           id="g304"><g
             transform="matrix(2.371623,0,0,2.37147,87.880339,404.74641)"
             id="g310"><g
               id="g312" /><g
               mask="url(#mask324)"
               id="g332"><path
                 id="path340"
                 style="fill:url(#radialGradient338);stroke:none"
                 d="m 335.234,198.027 c 0,16.196 -13.129,29.325 -29.328,29.325 -16.195,0 -29.324,-13.129 -29.324,-29.325 0,-16.195 13.129,-29.324 29.324,-29.324 16.199,0 29.328,13.129 29.328,29.324 z" /></g></g></g></g><g
         id="g342"><g
           clip-path="url(#clipPath348)"
           id="g344"><g
             transform="matrix(2.371623,0,0,2.37147,-152.88151,404.2815)"
             id="g350"><g
               id="g352" /><g
               mask="url(#mask364)"
               id="g372"><path
                 id="path380"
                 style="fill:url(#radialGradient378);stroke:none"
                 d="m 94.473,197.562 c 0,16.196 -13.129,29.325 -29.328,29.325 -16.196,0 -29.325,-13.129 -29.325,-29.325 0,-16.195 13.129,-29.324 29.325,-29.324 16.199,0 29.328,13.129 29.328,29.324 z" /></g></g></g></g><g
         id="g382"><g
           clip-path="url(#clipPath388)"
           id="g384"><g
             transform="matrix(2.371623,0,0,2.37147,-31.81198,276.9933)"
             id="g390"><g
               id="g392" /><g
               mask="url(#mask404)"
               id="g412"><path
                 id="path420"
                 style="fill:url(#radialGradient418);stroke:none"
                 d="m 215.543,70.277 c 0,16.196 -13.133,29.321 -29.328,29.321 -16.195,0 -29.324,-13.125 -29.324,-29.321 0,-16.195 13.129,-29.324 29.324,-29.324 16.195,0 29.328,13.129 29.328,29.324 z" /></g></g></g></g><g
         id="g422"><g
           clip-path="url(#clipPath428)"
           id="g424"><g
             transform="matrix(2.371623,0,0,2.37147,-31.726888,533.23702)"
             id="g430"><g
               id="g432" /><g
               mask="url(#mask444)"
               id="g452"><path
                 id="path460"
                 style="fill:url(#radialGradient458);stroke:none"
                 d="m 215.625,326.52 c 0,16.195 -13.129,29.324 -29.324,29.324 -16.196,0 -29.324,-13.129 -29.324,-29.324 0,-16.196 13.128,-29.325 29.324,-29.325 16.195,0 29.324,13.129 29.324,29.325 z" /></g></g></g></g><g
         id="g462"><g
           clip-path="url(#clipPath468)"
           id="g464"><g
             transform="matrix(6.33594,6.335531,-1.808587,1.808471,-326.86856,144.94703)"
             id="g470"><g
               id="g472" /><g
               mask="url(#mask486)"
               id="g494"><path
                 id="path504"
                 style="fill:url(#linearGradient502);stroke:none"
                 d="M 176.918,66.852 192.719,82.648 83.652,191.711 67.852,175.91 Z" /></g></g></g></g><g
         id="g506"><g
           clip-path="url(#clipPath512)"
           id="g508"><g
             transform="matrix(-6.33594,6.335531,1.808587,1.808471,706.46425,151.97785)"
             id="g514"><g
               id="g516" /><g
               mask="url(#mask530)"
               id="g538"><path
                 id="path548"
                 style="fill:url(#linearGradient546);stroke:none"
                 d="M 202.676,73.883 186.879,89.68 295.945,198.738 311.742,182.941 Z" /></g></g></g></g><g
         id="g550"><g
           clip-path="url(#clipPath556)"
           id="g552"><g
             transform="matrix(-6.33594,6.335531,1.808587,1.808471,581.31732,277.68042)"
             id="g558"><g
               id="g560" /><g
               mask="url(#mask574)"
               id="g582"><path
                 id="path592"
                 style="fill:url(#linearGradient590);stroke:none"
                 d="M 77.527,199.586 61.73,215.383 170.797,324.441 186.598,308.645 Z" /></g></g></g></g><path
         id="path594"
         style="fill:#ffffff;fill-opacity:1;fill-rule:nonzero;stroke:none"
         d="m 183.762,71.16 5,4.996 -120.93,120.922 -5,-5 z" /><g
         id="g596"><g
           clip-path="url(#clipPath602)"
           id="g598"><g
             transform="matrix(6.33594,6.335531,-1.808587,1.808471,-208.67231,278.51819)"
             id="g604"><g
               id="g606" /><g
               mask="url(#mask620)"
               id="g628"><path
                 id="path638"
                 style="fill:url(#linearGradient636);stroke:none"
                 d="m 295.117,200.422 15.797,15.797 -109.066,109.062 -15.797,-15.797 z" /></g></g></g></g><path
         id="path640"
         style="fill:#ffffff;fill-opacity:1;fill-rule:nonzero;stroke:none"
         d="m 305.285,200.562 5,5 -120.926,120.922 -5,-5 z" /><path
         id="path642"
         style="fill:#ffffff;fill-opacity:1;fill-rule:nonzero;stroke:none"
         d="m 67.074,200.137 -5,5 120.93,120.918 5,-5 z" /><path
         id="path644"
         style="fill:#ffffff;fill-opacity:1;fill-rule:nonzero;stroke:none"
         d="m 189.742,72.039 -5,5 120.926,120.918 5,-5 z" /><path
         id="path646"
         style="fill:#ffffff;fill-opacity:1;fill-rule:nonzero;stroke:none"
         d="m 207.598,70.16 c 0,11.66 -9.453,21.113 -21.114,21.113 -11.66,0 -21.109,-9.453 -21.109,-21.113 0,-11.656 9.449,-21.109 21.109,-21.109 11.661,0 21.114,9.453 21.114,21.109 z" /><path
         id="path648"
         style="fill:#ffffff;fill-opacity:1;fill-rule:nonzero;stroke:none"
         d="m 87.168,197.391 c 0,11.66 -9.453,21.109 -21.109,21.109 -11.661,0 -21.114,-9.449 -21.114,-21.109 0,-11.661 9.453,-21.11 21.114,-21.11 11.656,0 21.109,9.449 21.109,21.11 z" /><path
         id="path650"
         style="fill:#ffffff;fill-opacity:1;fill-rule:nonzero;stroke:none"
         d="m 327.641,197.797 c 0,11.66 -9.453,21.113 -21.114,21.113 -11.656,0 -21.109,-9.453 -21.109,-21.113 0,-11.656 9.453,-21.109 21.109,-21.109 11.661,0 21.114,9.453 21.114,21.109 z" /><path
         id="path652"
         style="fill:#ffffff;fill-opacity:1;fill-rule:nonzero;stroke:none"
         d="m 207.57,327.25 c 0,11.66 -9.453,21.109 -21.113,21.109 -11.66,0 -21.109,-9.449 -21.109,-21.109 0,-11.66 9.449,-21.109 21.109,-21.109 11.66,0 21.113,9.449 21.113,21.109 z" /><g
         id="g654"><g
           clip-path="url(#clipPath660)"
           id="g656"><g
             transform="matrix(2.835897,0,0,2.835714,-74.075728,445.14583)"
             id="g662"><g
               id="g664" /><g
               mask="url(#mask678)"
               id="g686"><path
                 id="path696"
                 style="fill:url(#radialGradient694);stroke:none"
                 d="m 221.699,197.961 c 0,19.367 -15.699,35.062 -35.066,35.062 -19.367,0 -35.067,-15.695 -35.067,-35.062 0,-19.367 15.7,-35.066 35.067,-35.066 19.367,0 35.066,15.699 35.066,35.066 z" /></g></g></g></g><path
         id="path698"
         style="fill:#ffffff;fill-opacity:1;fill-rule:nonzero;stroke:none"
         d="m 215.191,198.121 c 0,15.746 -12.769,28.516 -28.519,28.516 -15.75,0 -28.52,-12.77 -28.52,-28.516 0,-15.75 12.77,-28.519 28.52,-28.519 15.75,0 28.519,12.769 28.519,28.519 z" /><text
         id="text702"
         style="font-variant:normal;font-weight:normal;font-size:64.02832794px;font-family:Verdana;-inkscape-font-specification:Verdana;writing-mode:lr-tb;fill:#3a7ebc;fill-opacity:1;fill-rule:nonzero;stroke:none"
         transform="matrix(1,0,0,0.99993542,430.33577,294.3241)"><tspan
           id="tspan700"
           y="0"
           x="0 37.074154 75.528664 101.70074 140.15526 157.72552 175.29581 213.43768 231.00795 253.51791 290.31543 307.88571 325.45599 363.59787 386.10782 428.91675 466.80853 500.16702 525.39697 563.53882">Parallel File System</tspan></text>
<g
         id="g704"><g
           clip-path="url(#clipPath710)"
           id="g706"><g
             transform="matrix(1.863301,0,0,1.86318,15.278363,360.35698)"
             id="g712"><g
               id="g714" /><g
               mask="url(#mask726)"
               id="g734"><path
                 id="path742"
                 style="fill:url(#radialGradient740);stroke:none"
                 d="m 209.613,197.945 c 0,12.727 -10.312,23.039 -23.039,23.039 -12.722,0 -23.039,-10.312 -23.039,-23.039 0,-12.722 10.317,-23.039 23.039,-23.039 12.727,0 23.039,10.317 23.039,23.039 z" /></g></g></g></g><g
         id="g744"><g
           id="g746"><g
             id="g752"><path
               id="path760"
               style="fill:url(#linearGradient758);stroke:none"
               d="m 205.711,198.219 c 0,10.414 -8.441,18.855 -18.856,18.855 -10.414,0 -18.859,-8.441 -18.859,-18.855 0,-10.414 8.445,-18.856 18.859,-18.856 10.415,0 18.856,8.442 18.856,18.856 z" /></g></g></g><path
         id="path762"
         style="fill:#020000;fill-opacity:1;fill-rule:nonzero;stroke:none"
         d="m 632.949,94.512 -0.265,90.48 h 18.726 l -0.262,-26.058 40.989,0.132 c 39.215,-0.781 39.718,-62.664 0,-64.293 z m 17.891,15.859 h 37.598 c 19.984,1.504 19.082,33.356 0,33.703 l -37.598,-0.09 z" /><path
         id="path764"
         style="fill:#020000;fill-opacity:1;fill-rule:nonzero;stroke:none"
         d="m 418.062,94.117 v 90.875 h 82.758 v -16.5 h -63.511 v -21.344 h 58.273 v -15.187 h -58.797 v -21.606 h 62.727 V 94.148 Z" /><path
         id="path766"
         style="fill:#020000;fill-opacity:1;fill-rule:nonzero;stroke:none"
         d="m 517.582,94.25 35.356,44.914 -37.876,46.367 22.95,-0.015 26.058,-34.832 27.301,34.796 23.734,0.051 -38.074,-46.5 35.399,-44.773 H 590.047 L 565.379,126.066 539.738,94.25 Z" /><path
         id="path768"
         style="fill:#020000;fill-opacity:1;fill-rule:nonzero;stroke:none"
         d="m 723.344,185.184 45.554,-90.739 h 20.094 l 46.297,90.832 h -19.812 l -8.797,-18.242 h -31.207 l -11.481,-14.629 h 34.539 l -19.539,-41.109 -35.465,74.074 z" /><path
         id="path770"
         style="fill:#020000;fill-opacity:1;fill-rule:nonzero;stroke:none"
         d="m 852.535,185.305 h 18.313 V 119.91 l 55.648,65.461 h 17.039 V 95.094 h -17.41 v 64.812 L 871.863,95.094 h -19.258 z" /><path
         id="path772"
         style="fill:#020000;fill-opacity:1;fill-rule:nonzero;stroke:none"
         d="m 973.996,94.727 0.277,90.734 55.836,-0.371 c 50.075,2.969 59.758,-86.774 0,-90.086 z m 17.777,15.273 34.539,0.648 c 34.528,-0.558 37.165,57.227 0,58.704 l -34.539,-0.278 z" /></g></g></svg>